<svg width="808" height="250" viewBox="0 0 808 250" fill="none" xmlns="http://www.w3.org/2000/svg">
<path d="M78.1797 164.413L26.651 74.8594L68.2293 98.6692L68.9401 139.537L78.1797 164.413Z" fill="#99B0C8"/>
<path d="M154.923 222.687L130.758 187.505L135.733 178.266L168.782 219.489L154.923 222.687Z" fill="#152640"/>
<path d="M21.3203 53.3047H106.609L102.345 67.7527L29.4938 67.8749L21.3203 53.3047Z" fill="#99B0C8"/>
<path d="M226.36 53.3047H143.203L148.178 67.8749H221.029L226.36 53.3047Z" fill="#CD0050"/>
<path d="M143.164 53.3047H106.327L102.336 67.5195H148.535L143.164 53.3047Z" fill="#152640"/>
<path fill-rule="evenodd" clip-rule="evenodd" d="M66.8108 67.5156H221.042L223.884 72.8564L183.256 143.565L196.166 162.755L203.984 223.879C177.686 249.465 98.0834 261.192 62.9017 235.961C57.0071 232.57 54.2182 230.232 50.7444 227.319C49.4952 226.272 48.1574 225.15 46.5547 223.879L66.8108 143.92V67.5156ZM148.198 96.3051H102.71L103.064 161.322V220.682C122.741 226.345 130.782 225.657 158.501 218.905L133.625 182.657L127.584 172.707L114.08 173.773L115.857 182.657L103.483 161.69L146.065 161.338L156.61 143.925L163.834 95.5943L168.098 93.8175L148.198 96.3051ZM103.483 161.69L103.064 160.98V161.322L103.066 161.693L103.483 161.69Z" fill="#203656"/>
<path d="M103.008 128.687C103.008 128.687 103.066 67.6383 102.346 67.3988C102.346 67.3988 32.7339 67.323 30.5505 67.6322C28.9676 67.8561 28.9485 67.9186 30.1951 68.7872C30.92 69.2925 39.9884 74.623 50.3474 80.6331L69.1821 91.5607L79.6028 97.1308V143.835L7.78906 173.069C15.2941 191.491 27.7566 208.829 42.6302 220.998C52.5053 229.521 58.1884 233.518 68.9417 239.881C81.2228 245.638 90.0872 247.88 103.768 249.348L103.008 128.687Z" fill="#B9D0E8"/>
<path d="M149.272 156.594C149.272 156.594 147.849 67.9651 148.569 67.7256C148.569 67.7256 218.124 67.3233 220.307 67.6325C221.89 67.8563 221.909 67.9189 220.662 68.7874C219.937 69.2927 210.869 74.6233 200.51 80.6333L181.675 91.561L171.255 97.131V143.835L242.922 173.427C235.402 191.716 223.004 208.908 208.227 220.998C203.99 224.465 203.133 224.906 202.302 224.049C201.41 223.131 158.77 173.756 149.272 156.594Z" fill="#CD0050"/>
<path d="M21.3203 53.3056C35.3611 33.5225 54.8712 17.9643 77.6188 8.88426C91.983 3.15054 107.638 0 124.022 0C140.734 0 156.688 3.27788 171.287 9.23152C193.666 18.3581 212.506 33.7724 226.369 53.3056H145.7H104.122H21.3203Z" fill="#B9D0E8"/>
<path d="M226.362 53.3056H145.693H124.904L124.016 0C140.728 0 156.681 3.27788 171.28 9.23152C193.659 18.3581 212.499 33.7724 226.362 53.3056Z" fill="#FD0063"/>
<path d="M123.945 0C107.038 0 91.9483 3.54963 77.125 8.7621L103.409 48.4596L106.342 53.3056H143.015H226.381C217.496 38.9686 182.315 0.0252058 123.945 0Z" fill="#203656"/>
<path d="M148.523 67.5156H221.217L221.374 68.2264L224.217 72.8462L148.523 110.16V67.5156Z" fill="#FD0063"/>
<path d="M66.8057 98.0737L70.3594 91.677L29.4918 67.8672L26.6488 74.9746L66.8057 98.0737Z" fill="#99B0C8"/>
<path d="M145.691 161.203H103.047V187.501H130.742L145.691 161.203Z" fill="#152640"/>
<path d="M79.5902 218.916V141.445H73.1935H66.7969V206.445L79.5902 218.916Z" fill="#203656"/>
<path d="M275.203 144.991C276.847 143.99 278.253 142.942 279.421 141.846C280.613 140.749 281.59 139.534 282.352 138.2C283.115 136.889 283.675 135.423 284.032 133.803C284.39 132.159 284.568 130.3 284.568 128.227V79.8633H295.9V126.189C295.9 128.668 295.792 130.931 295.578 132.981C295.363 135.006 295.006 136.865 294.506 138.557C294.029 140.273 293.374 141.846 292.54 143.275C291.729 144.705 290.717 146.064 289.501 147.35C288.31 148.637 286.892 149.876 285.248 151.068C283.627 152.259 281.745 153.463 279.6 154.678L275.203 144.991Z" fill="#B9D0E8"/>
<path d="M329.464 79.8633H341.475L368.498 135.733H356.595L352.127 126.332H319.492L315.166 135.733H303.227L329.464 79.8633ZM347.659 117.003L335.577 91.6235L323.817 117.003H347.659Z" fill="#B9D0E8"/>
<path d="M377.184 79.8633H405.602C409.891 79.8633 413.609 80.3161 416.754 81.2217C419.9 82.1034 422.509 83.3902 424.583 85.0822C426.656 86.7741 428.193 88.8354 429.194 91.2661C430.218 93.6968 430.731 96.4491 430.731 99.5232C430.731 101.596 430.481 103.574 429.98 105.457C429.48 107.316 428.705 109.031 427.657 110.604C426.632 112.177 425.333 113.583 423.76 114.822C422.188 116.038 420.341 117.05 418.22 117.861L430.373 135.733H416.504L405.995 119.862H405.673L388.516 119.827V135.733H377.184V79.8633ZM405.888 110.032C408.033 110.032 409.903 109.782 411.5 109.282C413.12 108.781 414.467 108.078 415.539 107.173C416.635 106.267 417.445 105.171 417.97 103.884C418.518 102.573 418.792 101.12 418.792 99.5232C418.792 96.4015 417.719 93.9946 415.575 92.3027C413.43 90.5869 410.201 89.729 405.888 89.729H388.516V110.032H405.888Z" fill="#B9D0E8"/>
<path d="M436.7 79.8633H449.247L466.798 122.472L484.349 79.8633H496.895L472.41 135.733H461.186L436.7 79.8633Z" fill="#B9D0E8"/>
<path d="M503.866 79.8633H515.268V135.733H503.866V79.8633Z" fill="#B9D0E8"/>
<path d="M532.355 119.112C534.38 120.255 536.43 121.292 538.503 122.221C540.6 123.127 542.768 123.902 545.008 124.545C547.248 125.165 549.596 125.641 552.05 125.975C554.529 126.308 557.162 126.475 559.95 126.475C563.31 126.475 566.17 126.261 568.529 125.832C570.888 125.379 572.806 124.771 574.284 124.009C575.785 123.222 576.869 122.293 577.537 121.221C578.228 120.148 578.573 118.981 578.573 117.718C578.573 115.692 577.727 114.095 576.035 112.928C574.343 111.736 571.734 111.14 568.207 111.14C566.658 111.14 565.026 111.248 563.31 111.462C561.594 111.653 559.855 111.867 558.091 112.106C556.352 112.344 554.624 112.57 552.908 112.785C551.216 112.975 549.62 113.071 548.118 113.071C545.616 113.071 543.209 112.749 540.898 112.106C538.61 111.462 536.572 110.497 534.785 109.21C533.022 107.923 531.616 106.315 530.567 104.385C529.519 102.454 528.994 100.202 528.994 97.6287C528.994 96.1036 529.197 94.5904 529.602 93.0891C530.031 91.5878 530.698 90.158 531.604 88.7997C532.533 87.4175 533.725 86.1426 535.178 84.9749C536.632 83.7834 538.384 82.7587 540.433 81.9008C542.506 81.0429 544.889 80.3757 547.582 79.8991C550.299 79.3987 553.385 79.1484 556.84 79.1484C559.342 79.1484 561.856 79.2914 564.382 79.5774C566.908 79.8395 569.363 80.2208 571.746 80.7212C574.153 81.2217 576.464 81.8293 578.68 82.5442C580.897 83.2353 582.958 84.0098 584.864 84.8677L579.896 94.0185C578.323 93.3274 576.631 92.6959 574.82 92.124C573.009 91.5282 571.114 91.0159 569.136 90.5869C567.159 90.158 565.109 89.8244 562.988 89.5861C560.891 89.3239 558.746 89.1929 556.554 89.1929C553.432 89.1929 550.859 89.4192 548.833 89.872C546.831 90.3248 545.235 90.9086 544.043 91.6235C542.852 92.3146 542.018 93.101 541.541 93.9827C541.088 94.8406 540.862 95.6985 540.862 96.5564C540.862 98.2245 541.613 99.5947 543.114 100.667C544.615 101.716 546.903 102.24 549.977 102.24C551.216 102.24 552.634 102.156 554.231 101.99C555.851 101.799 557.543 101.596 559.306 101.382C561.094 101.168 562.905 100.977 564.74 100.81C566.599 100.619 568.398 100.524 570.137 100.524C573.426 100.524 576.333 100.893 578.859 101.632C581.409 102.371 583.542 103.431 585.258 104.814C586.973 106.172 588.272 107.828 589.154 109.782C590.035 111.712 590.476 113.881 590.476 116.288C590.476 119.505 589.726 122.376 588.224 124.902C586.747 127.405 584.626 129.525 581.862 131.265C579.121 132.981 575.809 134.291 571.925 135.197C568.04 136.079 563.715 136.52 558.949 136.52C555.803 136.52 552.729 136.317 549.727 135.912C546.724 135.531 543.841 134.983 541.076 134.268C538.336 133.529 535.715 132.659 533.212 131.658C530.734 130.634 528.434 129.514 526.314 128.298L532.355 119.112Z" fill="#B9D0E8"/>
<path d="M602.938 79.8828H632.785C636.431 79.8828 639.6 80.276 642.293 81.0624C645.01 81.825 647.262 82.8854 649.049 84.2437C650.836 85.6021 652.159 87.2225 653.017 89.1051C653.898 90.9638 654.339 92.9775 654.339 95.146C654.339 98.6967 653.219 101.807 650.979 104.476C653.553 106.001 655.471 107.979 656.734 110.409C657.997 112.84 658.629 115.604 658.629 118.702C658.629 121.3 658.188 123.647 657.306 125.744C656.448 127.841 655.126 129.64 653.338 131.142C651.575 132.619 649.335 133.763 646.618 134.573C643.925 135.359 640.744 135.753 637.074 135.753H602.938V79.8828ZM637.146 101.33C638.123 101.33 639.076 101.366 640.005 101.437C641.602 99.9121 642.4 98.1725 642.4 96.2184C642.4 94.1928 641.602 92.632 640.005 91.5358C638.433 90.4158 636.121 89.8557 633.071 89.8557H614.269V101.33H637.146ZM637.36 125.887C640.41 125.887 642.722 125.232 644.295 123.921C645.891 122.61 646.69 120.763 646.69 118.38C646.69 115.997 645.891 114.139 644.295 112.804C642.722 111.47 640.41 110.802 637.36 110.802H614.269V125.887H637.36Z" fill="#203656"/>
<path d="M668.709 79.8828H680.112V135.753H668.709V79.8828Z" fill="#203656"/>
<path d="M711.424 89.82H690.799V79.8828H743.381V89.82H722.756V135.753H711.424V89.82Z" fill="#203656"/>
<path d="M781.199 96.0754L786.561 89.534H752.996V79.8828H807.651L776.374 119.167L770.797 126.101H805.899V135.753H750.244L781.199 96.0754Z" fill="#203656"/>
<path d="M693.22 151.818H683.208V146.994H708.733V151.818H698.72V174.115H693.22V151.818Z" fill="#CD0050"/>
<path d="M714.615 146.994H737.71V151.818H720.115V157.231H735.698V161.76H720.115V169.309H738.075V174.115H714.615V146.994Z" fill="#CD0050"/>
<path d="M742.534 160.39C742.534 158.458 742.899 156.659 743.628 154.993C744.356 153.316 745.409 151.864 746.786 150.638C748.174 149.4 749.863 148.428 751.852 147.723C753.854 147.017 756.115 146.664 758.637 146.664C760.847 146.664 762.871 146.89 764.71 147.341C766.561 147.78 768.279 148.457 769.864 149.371L767.33 153.535C766.856 153.223 766.307 152.946 765.682 152.703C765.069 152.46 764.41 152.257 763.704 152.095C763.01 151.922 762.287 151.789 761.535 151.696C760.795 151.604 760.06 151.557 759.331 151.557C757.573 151.557 756.005 151.777 754.629 152.217C753.252 152.645 752.09 153.252 751.141 154.039C750.204 154.814 749.487 155.745 748.989 156.832C748.503 157.908 748.261 159.094 748.261 160.39C748.261 161.731 748.515 162.963 749.024 164.086C749.533 165.208 750.268 166.179 751.228 167.001C752.199 167.81 753.379 168.447 754.768 168.909C756.167 169.361 757.746 169.586 759.505 169.586C760.303 169.586 761.095 169.528 761.882 169.413C762.669 169.297 763.426 169.141 764.155 168.944C764.895 168.736 765.607 168.493 766.289 168.215C766.972 167.926 767.608 167.614 768.198 167.278L770.731 171.443C769.251 172.391 767.539 173.138 765.595 173.681C763.652 174.213 761.587 174.479 759.401 174.479C756.613 174.479 754.166 174.121 752.061 173.404C749.955 172.675 748.197 171.68 746.786 170.419C745.374 169.147 744.31 167.654 743.593 165.942C742.887 164.219 742.534 162.368 742.534 160.39Z" fill="#CD0050"/>
<path d="M776.787 146.994H782.288V154.073H799.154V146.994H804.672V174.115H799.154V158.776H782.288V174.115H776.787V146.994Z" fill="#CD0050"/>
<path d="M305.234 149.052H307.435V151.884H314.181V149.052H316.388V159.9H314.181V153.765H307.435V159.9H305.234V149.052Z" fill="#B9D0E8"/>
<path d="M319.061 149.052H321.261V155.028C321.261 155.518 321.328 155.956 321.462 156.34C321.596 156.719 321.795 157.041 322.059 157.304C322.327 157.568 322.658 157.769 323.051 157.908C323.445 158.042 323.903 158.109 324.426 158.109C324.944 158.109 325.4 158.042 325.793 157.908C326.191 157.769 326.522 157.568 326.786 157.304C327.054 157.041 327.255 156.719 327.39 156.34C327.524 155.956 327.591 155.518 327.591 155.028V149.052H329.791V155.292C329.791 156.004 329.671 156.652 329.43 157.235C329.189 157.818 328.84 158.318 328.382 158.734C327.924 159.151 327.362 159.472 326.695 159.699C326.034 159.926 325.277 160.039 324.426 160.039C323.574 160.039 322.815 159.926 322.149 159.699C321.487 159.472 320.928 159.151 320.469 158.734C320.011 158.318 319.662 157.818 319.421 157.235C319.181 156.652 319.061 156.004 319.061 155.292V149.052Z" fill="#B9D0E8"/>
<path d="M332.484 149.052H334.684L338.627 153.008L342.569 149.052H344.769V159.9H342.569V152.099L338.627 155.895L334.684 152.099V159.9H332.484V149.052Z" fill="#B9D0E8"/>
<path d="M351.557 149.052H353.89L359.137 159.9H356.826L355.958 158.075H349.621L348.781 159.9H346.463L351.557 149.052ZM355.09 156.263L352.744 151.335L350.461 156.263H355.09Z" fill="#B9D0E8"/>
<path d="M360.81 149.052H363.01L369.77 152.592V149.052H371.97V159.9H369.77V154.924L363.01 151.405V159.9H360.81V149.052Z" fill="#B9D0E8"/>
<path d="M379.758 149.052H385.477C386.31 149.052 387.032 149.142 387.643 149.322C388.254 149.503 388.76 149.764 389.163 150.107C389.565 150.445 389.864 150.859 390.058 151.349C390.257 151.84 390.357 152.393 390.357 153.008C390.357 153.586 390.26 154.121 390.065 154.611C389.871 155.102 389.572 155.528 389.17 155.888C388.772 156.245 388.268 156.525 387.657 156.728C387.046 156.927 386.324 157.027 385.491 157.027L381.958 157.02V159.9H379.758V149.052ZM385.533 155.118C385.949 155.118 386.313 155.069 386.623 154.972C386.937 154.87 387.199 154.729 387.407 154.549C387.62 154.364 387.777 154.142 387.879 153.883C387.985 153.619 388.038 153.327 388.038 153.008C388.038 152.365 387.828 151.865 387.407 151.509C386.99 151.148 386.366 150.967 385.533 150.967H381.958V155.118H385.533Z" fill="#B9D0E8"/>
<path d="M392.127 154.445C392.127 153.626 392.277 152.876 392.578 152.196C392.879 151.516 393.3 150.933 393.841 150.447C394.387 149.956 395.039 149.577 395.798 149.309C396.562 149.04 397.406 148.906 398.332 148.906C399.253 148.906 400.095 149.04 400.858 149.309C401.622 149.577 402.274 149.956 402.815 150.447C403.361 150.933 403.785 151.516 404.086 152.196C404.386 152.876 404.537 153.626 404.537 154.445C404.537 155.268 404.386 156.025 404.086 156.714C403.785 157.399 403.361 157.989 402.815 158.484C402.274 158.979 401.622 159.366 400.858 159.643C400.095 159.916 399.253 160.053 398.332 160.053C397.406 160.053 396.562 159.916 395.798 159.643C395.039 159.366 394.387 158.979 393.841 158.484C393.3 157.989 392.879 157.399 392.578 156.714C392.277 156.025 392.127 155.268 392.127 154.445ZM394.327 154.445C394.327 155.005 394.426 155.509 394.625 155.958C394.829 156.407 395.109 156.791 395.465 157.11C395.826 157.425 396.249 157.668 396.735 157.839C397.226 158.01 397.758 158.096 398.332 158.096C398.905 158.096 399.435 158.01 399.921 157.839C400.412 157.668 400.835 157.425 401.191 157.11C401.548 156.791 401.828 156.407 402.031 155.958C402.235 155.509 402.337 155.005 402.337 154.445C402.337 153.885 402.235 153.383 402.031 152.939C401.828 152.494 401.548 152.12 401.191 151.814C400.835 151.504 400.412 151.268 399.921 151.106C399.435 150.944 398.905 150.863 398.332 150.863C397.758 150.863 397.226 150.944 396.735 151.106C396.249 151.268 395.826 151.504 395.465 151.814C395.109 152.12 394.829 152.494 394.625 152.939C394.426 153.383 394.327 153.885 394.327 154.445Z" fill="#B9D0E8"/>
<path d="M407.487 156.673C407.88 156.895 408.278 157.096 408.68 157.277C409.088 157.452 409.509 157.603 409.944 157.728C410.379 157.848 410.834 157.941 411.311 158.005C411.792 158.07 412.304 158.103 412.845 158.103C413.497 158.103 414.053 158.061 414.511 157.978C414.969 157.89 415.341 157.772 415.628 157.624C415.92 157.471 416.13 157.29 416.26 157.082C416.394 156.874 416.461 156.647 416.461 156.402C416.461 156.009 416.297 155.699 415.968 155.472C415.64 155.241 415.133 155.125 414.448 155.125C414.148 155.125 413.831 155.146 413.497 155.187C413.164 155.224 412.826 155.266 412.484 155.312C412.146 155.359 411.811 155.403 411.478 155.444C411.149 155.481 410.839 155.5 410.548 155.5C410.062 155.5 409.594 155.437 409.146 155.312C408.701 155.187 408.306 155 407.959 154.75C407.616 154.5 407.343 154.188 407.14 153.813C406.936 153.438 406.834 153.001 406.834 152.501C406.834 152.205 406.874 151.911 406.952 151.62C407.036 151.328 407.165 151.051 407.341 150.787C407.521 150.519 407.753 150.271 408.035 150.044C408.317 149.813 408.657 149.614 409.055 149.447C409.458 149.281 409.921 149.151 410.443 149.059C410.971 148.961 411.57 148.913 412.241 148.913C412.727 148.913 413.215 148.941 413.706 148.996C414.196 149.047 414.673 149.121 415.135 149.218C415.603 149.315 416.052 149.433 416.482 149.572C416.912 149.706 417.313 149.857 417.683 150.023L416.718 151.8C416.413 151.666 416.084 151.543 415.732 151.432C415.381 151.317 415.013 151.217 414.629 151.134C414.245 151.051 413.847 150.986 413.435 150.94C413.028 150.889 412.611 150.863 412.186 150.863C411.579 150.863 411.08 150.907 410.686 150.995C410.298 151.083 409.988 151.196 409.756 151.335C409.525 151.469 409.363 151.622 409.27 151.793C409.183 151.96 409.139 152.126 409.139 152.293C409.139 152.617 409.284 152.883 409.576 153.091C409.867 153.295 410.312 153.397 410.908 153.397C411.149 153.397 411.424 153.38 411.734 153.348C412.049 153.311 412.378 153.272 412.72 153.23C413.067 153.188 413.419 153.151 413.775 153.119C414.136 153.082 414.485 153.064 414.823 153.064C415.462 153.064 416.026 153.135 416.517 153.279C417.012 153.422 417.426 153.628 417.759 153.896C418.092 154.16 418.344 154.482 418.516 154.861C418.687 155.236 418.772 155.657 418.772 156.124C418.772 156.749 418.627 157.307 418.335 157.797C418.048 158.283 417.636 158.695 417.1 159.033C416.568 159.366 415.924 159.62 415.17 159.796C414.416 159.967 413.576 160.053 412.651 160.053C412.04 160.053 411.443 160.014 410.86 159.935C410.277 159.861 409.717 159.754 409.18 159.616C408.648 159.472 408.139 159.303 407.653 159.109C407.172 158.91 406.725 158.693 406.314 158.457L407.487 156.673Z" fill="#B9D0E8"/>
<path d="M421.701 156.673C422.095 156.895 422.493 157.096 422.895 157.277C423.302 157.452 423.724 157.603 424.159 157.728C424.593 157.848 425.049 157.941 425.526 158.005C426.007 158.07 426.518 158.103 427.06 158.103C427.712 158.103 428.268 158.061 428.726 157.978C429.184 157.89 429.556 157.772 429.843 157.624C430.135 157.471 430.345 157.29 430.475 157.082C430.609 156.874 430.676 156.647 430.676 156.402C430.676 156.009 430.512 155.699 430.183 155.472C429.855 155.241 429.348 155.125 428.663 155.125C428.362 155.125 428.045 155.146 427.712 155.187C427.379 155.224 427.041 155.266 426.699 155.312C426.361 155.359 426.026 155.403 425.692 155.444C425.364 155.481 425.054 155.5 424.762 155.5C424.277 155.5 423.809 155.437 423.36 155.312C422.916 155.187 422.52 155 422.173 154.75C421.831 154.5 421.558 154.188 421.354 153.813C421.151 153.438 421.049 153.001 421.049 152.501C421.049 152.205 421.088 151.911 421.167 151.62C421.25 151.328 421.38 151.051 421.556 150.787C421.736 150.519 421.968 150.271 422.25 150.044C422.532 149.813 422.872 149.614 423.27 149.447C423.673 149.281 424.135 149.151 424.658 149.059C425.186 148.961 425.785 148.913 426.456 148.913C426.942 148.913 427.43 148.941 427.92 148.996C428.411 149.047 428.888 149.121 429.35 149.218C429.818 149.315 430.266 149.433 430.697 149.572C431.127 149.706 431.527 149.857 431.898 150.023L430.933 151.8C430.627 151.666 430.299 151.543 429.947 151.432C429.596 151.317 429.228 151.217 428.844 151.134C428.46 151.051 428.062 150.986 427.65 150.94C427.243 150.889 426.826 150.863 426.4 150.863C425.794 150.863 425.295 150.907 424.901 150.995C424.513 151.083 424.202 151.196 423.971 151.335C423.74 151.469 423.578 151.622 423.485 151.793C423.397 151.96 423.353 152.126 423.353 152.293C423.353 152.617 423.499 152.883 423.791 153.091C424.082 153.295 424.526 153.397 425.123 153.397C425.364 153.397 425.639 153.38 425.949 153.348C426.264 153.311 426.592 153.272 426.935 153.23C427.282 153.188 427.634 153.151 427.99 153.119C428.351 153.082 428.7 153.064 429.038 153.064C429.676 153.064 430.241 153.135 430.731 153.279C431.227 153.422 431.641 153.628 431.974 153.896C432.307 154.16 432.559 154.482 432.73 154.861C432.902 155.236 432.987 155.657 432.987 156.124C432.987 156.749 432.842 157.307 432.55 157.797C432.263 158.283 431.851 158.695 431.315 159.033C430.782 159.366 430.139 159.62 429.385 159.796C428.631 159.967 427.791 160.053 426.865 160.053C426.255 160.053 425.658 160.014 425.075 159.935C424.492 159.861 423.932 159.754 423.395 159.616C422.863 159.472 422.354 159.303 421.868 159.109C421.387 158.91 420.94 158.693 420.528 158.457L421.701 156.673Z" fill="#B9D0E8"/>
<path d="M435.132 149.052H437.346V159.9H435.132V149.052Z" fill="#B9D0E8"/>
<path d="M440.157 149.052H445.953C446.661 149.052 447.276 149.128 447.799 149.281C448.327 149.429 448.764 149.635 449.111 149.898C449.458 150.162 449.715 150.477 449.881 150.842C450.052 151.203 450.138 151.594 450.138 152.015C450.138 152.705 449.921 153.309 449.486 153.827C449.985 154.123 450.358 154.507 450.603 154.979C450.848 155.451 450.971 155.988 450.971 156.589C450.971 157.094 450.885 157.55 450.714 157.957C450.548 158.364 450.291 158.713 449.944 159.005C449.601 159.292 449.166 159.514 448.639 159.671C448.116 159.824 447.498 159.9 446.786 159.9H440.157V149.052ZM446.8 153.216C446.989 153.216 447.174 153.223 447.355 153.237C447.665 152.941 447.82 152.603 447.82 152.224C447.82 151.83 447.665 151.527 447.355 151.314C447.049 151.097 446.601 150.988 446.008 150.988H442.357V153.216H446.8ZM446.841 157.985C447.433 157.985 447.882 157.857 448.188 157.603C448.498 157.348 448.653 156.99 448.653 156.527C448.653 156.064 448.498 155.703 448.188 155.444C447.882 155.185 447.433 155.056 446.841 155.056H442.357V157.985H446.841Z" fill="#B9D0E8"/>
<path d="M452.928 149.052H455.142V159.9H452.928V149.052Z" fill="#B9D0E8"/>
<path d="M457.953 149.052H460.154V157.971H466.463V159.9H457.953V149.052Z" fill="#B9D0E8"/>
<path d="M468.323 149.052H470.537V159.9H468.323V149.052Z" fill="#B9D0E8"/>
<path d="M476.617 150.981H472.612V149.052H482.822V150.981H478.818V159.9H476.617V150.981Z" fill="#B9D0E8"/>
<path d="M484.898 149.052H487.112V159.9H484.898V149.052Z" fill="#B9D0E8"/>
<path d="M489.923 149.052H499.161V150.981H492.123V153.147H498.356V154.958H492.123V157.978H499.307V159.9H489.923V149.052Z" fill="#B9D0E8"/>
<path d="M502.257 156.673C502.65 156.895 503.048 157.096 503.451 157.277C503.858 157.452 504.279 157.603 504.714 157.728C505.149 157.848 505.605 157.941 506.081 158.005C506.562 158.07 507.074 158.103 507.615 158.103C508.267 158.103 508.823 158.061 509.281 157.978C509.739 157.89 510.111 157.772 510.398 157.624C510.69 157.471 510.9 157.29 511.03 157.082C511.164 156.874 511.231 156.647 511.231 156.402C511.231 156.009 511.067 155.699 510.738 155.472C510.41 155.241 509.903 155.125 509.218 155.125C508.918 155.125 508.601 155.146 508.267 155.187C507.934 155.224 507.597 155.266 507.254 155.312C506.916 155.359 506.581 155.403 506.248 155.444C505.919 155.481 505.609 155.5 505.318 155.5C504.832 155.5 504.364 155.437 503.916 155.312C503.471 155.187 503.076 155 502.729 154.75C502.386 154.5 502.113 154.188 501.91 153.813C501.706 153.438 501.604 153.001 501.604 152.501C501.604 152.205 501.644 151.911 501.722 151.62C501.806 151.328 501.935 151.051 502.111 150.787C502.291 150.519 502.523 150.271 502.805 150.044C503.087 149.813 503.427 149.614 503.825 149.447C504.228 149.281 504.691 149.151 505.214 149.059C505.741 148.961 506.34 148.913 507.011 148.913C507.497 148.913 507.985 148.941 508.476 148.996C508.966 149.047 509.443 149.121 509.906 149.218C510.373 149.315 510.822 149.433 511.252 149.572C511.682 149.706 512.083 149.857 512.453 150.023L511.488 151.8C511.183 151.666 510.854 151.543 510.502 151.432C510.151 151.317 509.783 151.217 509.399 151.134C509.015 151.051 508.617 150.986 508.205 150.94C507.798 150.889 507.381 150.863 506.956 150.863C506.35 150.863 505.85 150.907 505.456 150.995C505.068 151.083 504.758 151.196 504.526 151.335C504.295 151.469 504.133 151.622 504.041 151.793C503.953 151.96 503.909 152.126 503.909 152.293C503.909 152.617 504.054 152.883 504.346 153.091C504.637 153.295 505.082 153.397 505.679 153.397C505.919 153.397 506.195 153.38 506.505 153.348C506.819 153.311 507.148 153.272 507.49 153.23C507.837 153.188 508.189 153.151 508.545 153.119C508.906 153.082 509.255 153.064 509.593 153.064C510.232 153.064 510.796 153.135 511.287 153.279C511.782 153.422 512.196 153.628 512.529 153.896C512.862 154.16 513.115 154.482 513.286 154.861C513.457 155.236 513.543 155.657 513.543 156.124C513.543 156.749 513.397 157.307 513.105 157.797C512.818 158.283 512.407 158.695 511.87 159.033C511.338 159.366 510.694 159.62 509.94 159.796C509.186 159.967 508.346 160.053 507.421 160.053C506.81 160.053 506.213 160.014 505.63 159.935C505.047 159.861 504.487 159.754 503.95 159.616C503.418 159.472 502.909 159.303 502.423 159.109C501.942 158.91 501.496 158.693 501.084 158.457L502.257 156.673Z" fill="#B9D0E8"/>
<path d="M522.468 155.153H520.095V153.612H522.468V151.259H524.079V153.612H526.459V155.153H524.079V157.631H522.468V155.153Z" fill="#B9D0E8"/>
<path d="M530.742 155.153H528.368V153.612H530.742V151.259H532.352V153.612H534.733V155.153H532.352V157.631H530.742V155.153Z" fill="#B9D0E8"/>
</svg>
